<?xml version="1.0" standalone="no"?>
<!DOCTYPE svg PUBLIC "-//W3C//DTD SVG 20010904//EN"
 "http://www.w3.org/TR/2001/REC-SVG-20010904/DTD/svg10.dtd">
<svg version="1.0" xmlns="http://www.w3.org/2000/svg"
 width="1039.000000pt" height="1037.000000pt" viewBox="0 0 1039.000000 1037.000000"
 preserveAspectRatio="xMidYMid meet">

<g transform="translate(0.000000,1037.000000) scale(0.100000,-0.100000)"
fill="#000000" stroke="none">
<path fill="#000000" d="M3960 9984 c-102 -29 -194 -54 -205 -54 -42 0 -271 -72 -292 -92 -37
-35 -36 -61 8 -216 23 -81 41 -154 41 -162 0 -8 25 -102 55 -209 30 -106 56
-207 58 -225 1 -17 17 -78 33 -136 17 -58 39 -135 50 -172 10 -37 17 -69 15
-72 -2 -2 18 -84 45 -182 27 -99 63 -233 80 -299 16 -66 40 -153 51 -193 12
-41 23 -86 25 -102 2 -15 26 -110 54 -211 28 -101 57 -213 65 -249 8 -36 32
-123 52 -195 21 -71 37 -137 37 -145 0 -8 23 -96 51 -195 27 -99 50 -187 50
-195 -1 -15 38 -159 79 -293 11 -38 18 -70 16 -73 -5 -5 -70 28 -143 73 -58
35 -173 100 -265 151 -36 19 -84 48 -107 63 -23 16 -48 29 -56 29 -8 0 -25 8
-38 19 -13 10 -64 40 -114 66 -49 27 -97 54 -105 60 -8 7 -55 34 -105 60 -49
26 -97 53 -105 60 -8 6 -55 33 -105 60 -49 26 -101 56 -114 66 -13 11 -30 19
-37 19 -7 0 -32 13 -56 29 -24 15 -72 44 -108 63 -79 42 -197 110 -265 151
-27 17 -84 48 -125 70 -41 22 -94 53 -117 68 -23 16 -46 29 -52 29 -5 0 -46
23 -91 50 -45 28 -85 50 -89 50 -5 0 -24 11 -44 24 -20 14 -80 48 -134 77 -54
29 -100 55 -103 59 -3 4 -50 31 -105 60 -55 29 -102 56 -105 59 -3 4 -34 22
-70 40 -36 18 -88 48 -116 67 -28 19 -56 34 -62 34 -6 0 -28 12 -49 26 -61 42
-130 74 -158 74 -38 0 -60 -15 -86 -57 -13 -21 -29 -44 -36 -51 -7 -7 -14 -18
-14 -23 -1 -5 -2 -13 -3 -17 0 -5 -23 -44 -51 -87 -27 -44 -58 -97 -68 -119
-10 -23 -24 -48 -32 -56 -8 -9 -38 -58 -66 -110 -28 -52 -54 -97 -59 -100 -11
-8 -40 -67 -40 -84 0 -38 26 -66 99 -106 42 -24 101 -58 131 -77 77 -48 217
-131 265 -158 22 -12 71 -41 109 -64 37 -22 71 -41 76 -41 4 0 25 -13 46 -28
21 -16 71 -46 109 -67 39 -21 96 -54 127 -74 64 -41 184 -111 258 -152 37 -20
177 -103 240 -143 30 -18 82 -49 115 -67 33 -17 73 -41 90 -53 16 -12 47 -30
70 -42 65 -33 185 -104 256 -150 37 -24 77 -48 90 -53 13 -5 55 -30 94 -55 38
-25 72 -46 76 -46 4 0 44 -22 88 -50 44 -27 84 -50 88 -50 5 0 42 -23 82 -50
41 -28 79 -50 83 -50 9 0 110 -60 118 -70 3 -4 41 -26 85 -50 l80 -43 85 25
c47 14 112 32 145 41 65 16 270 75 490 139 77 23 174 49 215 58 41 9 138 35
215 57 77 22 169 47 205 55 36 9 115 30 175 48 171 49 264 63 335 49 65 -13
117 -40 127 -67 3 -9 12 -24 20 -33 14 -17 63 -171 63 -199 0 -15 41 -161 86
-303 8 -27 17 -63 18 -80 2 -18 25 -104 51 -192 26 -88 47 -170 46 -182 0 -13
4 -23 10 -23 5 0 8 -4 5 -9 -4 -5 17 -89 45 -186 28 -97 52 -191 54 -208 2
-18 24 -104 49 -191 25 -88 46 -170 46 -182 0 -48 22 -72 104 -114 44 -24 100
-56 124 -71 24 -16 48 -29 54 -29 6 0 34 -15 62 -34 28 -18 80 -48 116 -66 36
-18 72 -38 80 -45 8 -7 56 -34 105 -60 50 -26 97 -53 105 -60 8 -7 56 -34 105
-60 50 -26 101 -56 114 -66 13 -11 28 -19 34 -19 5 0 35 -15 66 -34 31 -19 81
-47 111 -63 74 -40 188 -106 286 -164 45 -27 84 -49 88 -49 3 0 40 -20 81 -45
41 -25 82 -48 92 -52 10 -4 53 -29 96 -55 43 -26 83 -48 89 -48 5 0 30 -14 55
-30 25 -17 79 -49 121 -71 43 -23 93 -51 112 -64 19 -12 75 -44 123 -71 49
-27 100 -56 115 -64 15 -9 62 -35 104 -58 43 -24 80 -47 83 -53 4 -5 13 -9 22
-9 9 0 39 -15 67 -34 28 -18 81 -49 118 -67 73 -36 109 -34 132 6 6 10 17 25
24 33 7 7 10 18 7 23 -4 5 -1 9 4 9 6 0 10 3 9 8 -2 7 35 71 74 125 11 16 21
34 22 40 3 15 27 61 36 67 4 3 27 41 50 85 24 44 52 93 63 108 41 60 87 160
87 190 0 40 -29 64 -161 137 -52 29 -96 56 -99 60 -3 3 -36 24 -75 45 -38 21
-92 52 -120 70 -27 18 -62 39 -77 46 -70 37 -148 84 -148 91 0 5 -7 8 -16 8
-8 0 -45 20 -82 44 -37 24 -87 53 -111 66 -24 12 -70 40 -101 61 -32 21 -61
39 -65 39 -10 0 -127 71 -143 87 -7 7 -21 13 -29 13 -9 0 -30 11 -47 24 -17
13 -74 47 -126 76 -52 29 -97 56 -100 60 -3 3 -36 24 -75 45 -38 20 -89 51
-113 66 -24 16 -58 36 -75 44 -18 9 -84 46 -147 84 -63 38 -144 86 -180 107
-36 20 -92 54 -124 75 -33 22 -63 39 -67 39 -4 0 -44 22 -88 50 -44 27 -85 50
-89 50 -5 0 -28 14 -51 30 -23 17 -72 47 -109 67 -37 19 -80 45 -97 57 -16 12
-61 39 -100 60 -38 21 -89 51 -113 67 -24 16 -47 29 -52 29 -6 0 -34 17 -64
37 -54 36 -62 53 -28 53 10 0 71 16 137 36 66 20 149 43 185 52 36 8 138 37
227 63 89 27 170 49 179 49 10 0 101 24 203 54 102 30 222 64 266 76 44 12
103 28 130 36 28 9 77 22 110 30 81 20 334 93 363 105 13 5 33 9 45 9 12 0 90
21 172 46 83 25 177 52 210 59 63 14 102 25 250 70 50 15 108 31 130 35 22 4
81 20 130 35 50 15 126 36 170 47 44 12 145 40 225 64 80 24 178 50 219 58 44
9 79 22 87 33 27 35 16 118 -36 288 -28 89 -50 171 -50 181 0 30 -88 315 -105
341 -25 37 -87 32 -310 -29 -137 -36 -261 -69 -390 -101 -55 -14 -140 -36
-190 -50 -49 -13 -112 -29 -140 -34 -27 -6 -115 -28 -195 -50 -80 -22 -161
-43 -180 -47 -19 -3 -116 -28 -215 -55 -99 -27 -209 -56 -245 -64 -76 -18
-282 -72 -495 -129 -82 -23 -172 -45 -200 -51 -27 -6 -130 -32 -227 -59 -97
-27 -199 -53 -225 -57 -26 -5 -120 -29 -208 -53 -88 -25 -185 -49 -215 -55
-30 -6 -63 -14 -72 -18 -14 -6 -13 2 8 47 15 29 32 60 39 68 7 8 34 55 61 105
26 49 53 95 59 102 7 6 18 26 25 45 15 38 79 146 97 166 7 7 14 18 14 23 1 5
2 12 3 17 2 12 90 157 98 163 5 3 10 14 12 25 3 10 26 56 53 101 26 45 63 108
82 140 19 32 52 92 74 133 22 41 48 87 58 102 11 14 19 31 19 36 0 6 5 12 10
14 6 2 12 14 15 27 2 14 8 27 13 30 10 7 54 84 90 156 13 28 28 52 32 55 4 3
31 50 60 105 29 55 59 105 66 112 7 7 16 23 20 36 4 12 10 24 13 27 4 3 22 35
41 73 19 37 37 67 41 67 4 0 14 17 22 38 16 38 78 147 97 170 6 7 13 21 15 32
2 11 17 39 33 62 16 24 44 72 62 108 18 36 45 83 60 105 15 22 44 72 64 110
51 96 70 129 79 136 4 3 10 16 12 29 2 13 8 26 12 29 12 9 68 103 92 153 11
24 39 72 61 107 22 34 40 74 40 88 0 27 -49 83 -74 83 -8 0 -34 13 -58 29 -24
15 -72 44 -108 63 -36 19 -87 48 -115 65 -176 108 -357 203 -385 203 -18 0
-31 -9 -45 -32 -10 -18 -23 -36 -27 -39 -5 -3 -10 -12 -12 -20 -2 -17 -26 -62
-36 -69 -6 -4 -70 -113 -138 -235 -9 -16 -20 -32 -23 -35 -3 -3 -23 -36 -44
-75 -21 -38 -42 -72 -46 -75 -4 -3 -15 -24 -24 -48 -10 -23 -20 -42 -24 -42
-3 0 -19 -25 -36 -55 -16 -30 -33 -55 -37 -55 -4 0 -8 -7 -8 -16 0 -8 -19 -45
-43 -82 -24 -37 -61 -98 -82 -137 -21 -38 -45 -76 -52 -83 -7 -7 -13 -20 -13
-28 0 -8 -5 -14 -11 -14 -5 0 -8 -3 -5 -8 4 -7 -52 -100 -89 -147 -8 -10 -15
-24 -15 -30 0 -6 -17 -38 -39 -71 -21 -32 -55 -90 -76 -129 -21 -38 -45 -76
-52 -83 -7 -7 -13 -19 -13 -27 0 -7 -5 -15 -11 -17 -5 -2 -11 -10 -13 -18 -2
-15 -40 -80 -77 -132 -10 -15 -19 -31 -19 -36 0 -4 -17 -35 -39 -68 -21 -32
-55 -90 -76 -129 -21 -38 -51 -88 -67 -109 -15 -21 -28 -42 -28 -46 0 -5 -18
-37 -40 -71 -22 -35 -43 -72 -46 -81 -4 -10 -10 -18 -13 -18 -4 0 -8 -6 -8
-13 0 -7 -9 -27 -20 -43 -36 -50 -77 -118 -94 -155 -9 -20 -31 -55 -48 -79
-17 -24 -31 -49 -31 -57 0 -7 -4 -13 -10 -13 -5 0 -10 -4 -10 -9 0 -7 -24 -51
-63 -116 -7 -11 -16 -23 -20 -26 -5 -3 -9 -12 -10 -20 -2 -8 -23 -48 -49 -89
-26 -41 -52 -87 -59 -102 -7 -16 -15 -28 -18 -28 -7 0 -73 221 -77 256 -2 21
-43 164 -64 224 -19 52 -33 116 -31 133 1 9 -3 17 -9 17 -6 0 -9 4 -6 8 3 5
-17 82 -44 171 -28 90 -50 171 -50 181 0 10 -23 93 -51 186 -28 92 -53 179
-54 193 -3 27 -10 51 -64 226 -17 55 -31 112 -31 128 0 15 -5 27 -11 27 -5 0
-8 4 -4 9 3 5 -1 29 -9 53 -43 132 -77 250 -85 294 -6 28 -31 120 -57 205 -26
85 -47 161 -47 169 0 8 -21 87 -47 175 -26 88 -54 189 -62 225 -9 36 -34 124
-57 197 -22 73 -41 140 -41 149 0 24 -61 227 -73 242 -21 26 -126 12 -317 -44z"/>
<path fill="#00aee6" d="M5175 5821 c-33 -10 -89 -25 -125 -34 -36 -8 -87 -22 -115 -30 -27
-9 -86 -25 -130 -37 -114 -30 -322 -90 -373 -106 -23 -8 -51 -14 -61 -14 -10
0 -100 -25 -201 -55 -101 -30 -190 -55 -199 -55 -8 0 -76 -18 -150 -41 -75
-23 -163 -47 -196 -54 -33 -7 -114 -29 -180 -49 -66 -20 -151 -43 -190 -52
-61 -13 -155 -40 -347 -100 -26 -7 -55 -14 -65 -14 -10 0 -85 -20 -166 -45
-81 -24 -164 -47 -185 -51 -20 -3 -111 -28 -201 -55 -90 -27 -171 -49 -180
-49 -8 0 -101 -24 -206 -54 -402 -115 -492 -140 -550 -152 -33 -7 -129 -34
-213 -59 -83 -25 -159 -45 -169 -45 -9 0 -76 -18 -147 -39 -72 -22 -186 -53
-252 -70 -67 -16 -139 -37 -159 -45 l-37 -16 4 -67 c2 -38 12 -99 22 -138 39
-151 59 -224 87 -316 16 -52 31 -113 34 -135 9 -71 32 -128 58 -148 26 -19 27
-19 119 3 51 13 183 47 293 76 110 29 229 60 265 68 91 21 312 80 525 138 99
27 189 49 201 49 11 0 40 6 65 14 44 15 268 75 429 116 177 45 331 85 505 131
99 26 209 54 245 62 36 8 124 32 195 52 72 21 144 40 160 42 17 3 111 26 210
53 232 62 274 72 285 65 10 -6 -13 -74 -38 -112 -8 -13 -11 -23 -8 -23 7 0
-23 -62 -34 -70 -4 -3 -26 -41 -50 -85 -24 -44 -58 -102 -75 -130 -18 -27 -49
-81 -69 -120 -43 -82 -69 -128 -76 -135 -3 -3 -6 -12 -8 -20 -2 -8 -9 -22 -16
-30 -17 -21 -67 -107 -88 -152 -9 -21 -22 -43 -28 -50 -12 -15 -82 -132 -81
-136 2 -5 -32 -67 -39 -72 -4 -3 -31 -50 -60 -105 -29 -55 -57 -102 -61 -105
-5 -3 -15 -21 -23 -40 -8 -19 -33 -64 -55 -100 -23 -36 -48 -81 -57 -100 -14
-31 -34 -66 -93 -160 -8 -14 -16 -30 -17 -37 -1 -6 -18 -36 -37 -65 -20 -29
-48 -78 -63 -108 -15 -30 -42 -79 -61 -107 -19 -29 -36 -58 -37 -65 -1 -7 -13
-31 -27 -53 -14 -22 -34 -56 -45 -75 -10 -19 -22 -38 -27 -41 -4 -3 -9 -14
-11 -25 -2 -10 -20 -44 -40 -74 -20 -30 -39 -63 -42 -72 -3 -10 -10 -18 -15
-18 -6 0 -8 -4 -5 -8 3 -5 -15 -41 -39 -79 -24 -39 -56 -95 -70 -124 -15 -29
-43 -76 -62 -105 -19 -28 -35 -58 -37 -65 -2 -14 -17 -40 -63 -110 -12 -19
-23 -40 -23 -47 0 -7 -5 -12 -11 -12 -5 0 -8 -4 -5 -8 3 -5 -4 -23 -15 -40
-21 -37 -25 -89 -6 -112 7 -8 37 -28 67 -44 30 -17 70 -40 89 -53 18 -13 38
-23 43 -23 10 0 135 -72 155 -90 7 -5 17 -10 24 -10 7 0 39 -17 73 -39 114
-72 205 -112 244 -109 33 3 39 8 75 73 22 39 43 72 48 75 4 3 17 26 28 50 22
46 81 145 101 168 6 6 8 12 5 12 -7 0 34 71 45 80 4 3 30 47 59 99 29 52 60
101 67 109 8 7 17 24 20 38 3 13 10 24 16 24 5 0 7 4 3 9 -3 5 1 15 8 23 7 7
26 36 42 63 16 28 33 53 38 56 4 3 9 12 11 20 2 17 26 62 36 69 4 3 31 48 60
100 29 52 61 106 71 119 11 13 19 29 19 37 0 7 4 14 8 16 8 3 48 70 117 193
47 84 88 150 97 153 4 2 8 10 8 18 0 8 19 45 43 82 38 59 81 130 135 227 9 17
19 32 22 35 3 3 6 10 7 17 2 11 15 31 85 135 10 15 18 31 18 36 0 6 15 32 33
58 19 27 51 81 72 119 21 39 46 82 56 97 11 14 19 31 19 36 0 6 5 12 11 14 5
2 11 10 13 18 1 8 23 48 49 88 26 40 47 76 47 81 0 5 15 31 33 57 19 27 51 81
72 119 21 39 53 92 71 120 19 27 34 55 34 61 0 15 34 44 52 44 22 0 47 -32 52
-66 2 -16 20 -83 41 -149 21 -66 44 -149 52 -185 8 -36 35 -132 60 -215 25
-82 46 -157 45 -165 0 -8 23 -89 50 -180 28 -91 50 -175 50 -187 0 -13 3 -23
7 -23 3 0 7 -10 7 -23 1 -20 36 -139 80 -275 8 -24 16 -59 19 -78 2 -18 18
-80 35 -136 51 -167 60 -201 65 -241 2 -21 7 -42 10 -47 10 -16 85 -273 90
-305 2 -16 27 -105 55 -198 28 -92 52 -180 54 -195 2 -15 24 -97 50 -184 26
-86 49 -171 51 -190 3 -18 9 -44 14 -58 5 -14 19 -59 31 -100 12 -41 30 -101
40 -133 10 -31 16 -57 13 -57 -3 0 6 -9 21 -21 41 -32 129 -22 341 39 99 29
238 68 309 87 71 19 137 42 148 51 27 26 23 62 -32 257 -27 98 -50 185 -50
194 0 17 -62 249 -85 319 -8 23 -16 61 -19 85 -3 24 -26 115 -51 202 -25 87
-47 174 -50 193 -2 19 -25 107 -50 196 -26 89 -51 185 -56 215 -6 29 -30 123
-55 210 -25 87 -46 167 -46 178 -1 20 -15 74 -69 265 -17 58 -30 115 -31 128
0 12 -5 22 -10 22 -5 0 -6 4 -3 10 3 5 -17 91 -46 190 -28 100 -52 194 -54
208 -1 15 -22 99 -47 187 -25 88 -50 183 -55 210 -10 49 -34 134 -73 265 -11
36 -22 81 -24 100 -3 19 -27 114 -55 211 -28 96 -51 183 -51 192 0 9 -14 65
-31 124 -17 60 -39 138 -50 176 -10 37 -21 82 -24 100 -2 17 -25 104 -50 192
-26 88 -48 177 -50 197 -6 58 -58 150 -99 176 -44 28 -124 29 -211 3z"/>
</g>
</svg>
